<?xml version="1.0" standalone="no"?>
<!DOCTYPE svg PUBLIC "-//W3C//DTD SVG 20010904//EN"
 "http://www.w3.org/TR/2001/REC-SVG-20010904/DTD/svg10.dtd">
<svg version="1.0" xmlns="http://www.w3.org/2000/svg"
 width="1424.000000pt" height="1424.000000pt" viewBox="0 0 1424.000000 1424.000000"
 preserveAspectRatio="xMidYMid meet">
<metadata>
Created by potrace 1.14, written by Peter Selinger 2001-2017
</metadata>
<g transform="translate(0.000000,1424.000000) scale(0.100000,-0.100000)"
fill="#000000" stroke="none">
<path d="M8429 11836 c-2 -2 -29 -6 -60 -9 -31 -4 -78 -11 -104 -17 -26 -6
-50 -9 -52 -6 -3 3 -16 1 -29 -4 -14 -6 -35 -12 -47 -14 -46 -10 -63 -14 -87
-24 -14 -5 -29 -10 -35 -11 -71 -9 -435 -171 -456 -203 -3 -5 -8 -8 -10 -6 -6
4 -149 -92 -184 -124 -16 -15 -33 -28 -37 -28 -8 0 -106 -97 -162 -161 -51
-59 -126 -164 -126 -178 0 -6 -4 -11 -9 -11 -5 0 -11 -8 -14 -17 -3 -10 -20
-43 -38 -73 -17 -30 -30 -55 -30 -55 1 0 -5 -16 -13 -36 -8 -20 -16 -42 -18
-50 -2 -8 -5 -16 -8 -19 -8 -7 -45 -133 -42 -142 1 -5 -2 -8 -6 -8 -4 0 -8 -8
-8 -17 -1 -10 -4 -31 -8 -48 -51 -239 -51 -546 -1 -810 3 -16 10 -52 15 -80 6
-27 12 -60 14 -72 3 -12 9 -30 15 -41 6 -11 8 -21 6 -24 -6 -5 10 -57 31 -104
8 -18 23 -34 34 -37 11 -3 23 -6 25 -7 9 -3 124 -30 152 -35 15 -2 37 -7 49
-9 12 -2 43 -7 70 -10 27 -4 65 -9 84 -11 192 -24 631 -24 770 0 14 3 50 7 80
11 30 3 59 9 64 12 5 2 23 6 40 8 29 2 45 5 118 20 15 3 30 5 33 5 2 0 23 6
45 14 22 8 40 12 40 8 0 -3 7 0 15 7 8 7 15 10 15 6 0 -3 16 0 35 8 20 9 38
15 40 15 15 0 151 47 153 53 2 5 10 8 19 8 16 0 35 8 178 75 50 23 94 42 98
43 4 1 15 8 23 17 9 8 22 15 30 15 8 0 14 5 14 10 0 6 5 10 11 10 6 0 31 14
56 30 24 17 46 30 49 30 6 0 187 130 194 139 3 4 19 17 36 29 69 47 272 245
352 341 21 24 42 49 47 55 19 21 110 141 135 178 14 21 28 38 33 38 4 0 7 6 7
14 0 8 6 21 13 28 7 7 30 42 52 78 21 36 41 67 44 70 14 12 176 330 215 420
15 36 32 74 37 85 24 54 100 262 129 355 17 58 38 124 46 147 7 24 16 57 19
75 3 17 8 35 11 39 2 4 -26 -1 -63 -12 -38 -11 -75 -22 -83 -23 -8 -2 -33 -9
-55 -14 -22 -6 -56 -13 -75 -16 -19 -3 -47 -8 -62 -11 -16 -3 -40 -7 -55 -10
-104 -19 -518 -26 -643 -11 -30 4 -77 9 -105 12 -87 10 -109 13 -135 18 -14 3
-47 7 -75 10 -27 3 -63 8 -80 11 -16 3 -50 7 -75 10 -25 3 -58 8 -75 10 -16 2
-55 6 -85 9 -30 3 -71 8 -90 12 -37 6 -445 15 -451 10z"/>
<path d="M6947 9003 c-2 -1 -304 -14 -394 -17 -35 0 -63 -4 -63 -7 0 -4 -12
-6 -27 -6 -25 0 -62 -3 -198 -17 -22 -2 -67 -7 -100 -10 -33 -3 -78 -9 -100
-12 -22 -4 -51 -8 -65 -9 -43 -5 -215 -35 -295 -51 -11 -2 -33 -6 -50 -9 -16
-3 -41 -8 -55 -10 -14 -3 -34 -7 -45 -9 -25 -5 -244 -56 -265 -61 -61 -17 -98
-27 -187 -53 -57 -16 -103 -27 -103 -24 0 2 -6 0 -13 -6 -7 -6 -24 -13 -37
-16 -26 -5 -219 -68 -261 -85 -39 -15 -63 -24 -77 -27 -24 -5 -227 -87 -236
-96 -6 -4 -16 -8 -22 -8 -11 0 -92 -36 -224 -98 -19 -9 -37 -17 -40 -17 -3 -1
-29 -13 -57 -28 -29 -15 -56 -27 -59 -26 -4 0 -10 -3 -13 -8 -3 -5 -37 -27
-76 -48 -114 -62 -306 -174 -315 -184 -3 -3 -45 -33 -95 -66 -82 -54 -192
-132 -205 -145 -3 -3 -34 -27 -70 -55 -36 -27 -72 -57 -80 -65 -9 -8 -36 -32
-60 -53 -107 -92 -296 -285 -364 -372 -22 -27 -47 -55 -55 -62 -9 -7 -13 -13
-9 -13 4 0 -4 -12 -17 -26 -28 -31 -168 -236 -194 -286 -43 -81 -84 -154 -95
-167 -6 -8 -10 -16 -9 -17 1 -2 -5 -21 -14 -41 -9 -21 -17 -40 -18 -43 -1 -3
-8 -18 -15 -35 -22 -50 -71 -188 -77 -215 -3 -14 -9 -29 -13 -35 -4 -5 -6 -18
-5 -27 2 -10 0 -18 -4 -18 -4 0 -8 -6 -8 -12 0 -10 -17 -94 -28 -138 -1 -5
-17 -103 -21 -135 -15 -103 -22 -315 -10 -315 5 0 4 -6 -1 -12 -6 -7 -9 -20
-8 -29 2 -9 6 -47 9 -85 4 -38 9 -81 11 -96 31 -179 37 -208 54 -268 7 -25 13
-47 13 -50 1 -11 71 -207 90 -249 33 -73 127 -263 150 -301 42 -69 142 -215
150 -218 4 -2 8 -8 8 -13 0 -17 144 -191 260 -314 96 -103 290 -276 405 -363
58 -43 101 -78 103 -84 2 -5 10 -8 18 -8 8 0 14 -4 14 -10 0 -5 4 -10 10 -10
5 0 40 -22 78 -50 38 -27 73 -50 79 -50 5 0 18 -9 28 -20 10 -11 24 -20 32
-20 7 0 13 -4 13 -10 0 -5 5 -10 11 -10 6 0 23 -9 38 -19 14 -11 47 -30 71
-44 25 -13 61 -32 80 -43 19 -10 37 -22 40 -25 14 -15 527 -259 545 -259 4 0
22 -7 41 -15 78 -34 102 -44 154 -61 30 -11 58 -23 61 -27 3 -5 9 -8 13 -7 5
1 284 -85 346 -108 8 -3 24 -7 35 -9 27 -6 37 -9 55 -16 16 -6 62 -16 70 -16
3 0 17 -4 33 -10 15 -6 38 -13 50 -15 12 -2 76 -18 142 -34 66 -17 136 -33
156 -36 20 -3 42 -8 50 -10 8 -3 30 -7 49 -10 42 -7 77 -13 145 -26 75 -14
152 -27 215 -34 19 -2 51 -7 70 -10 19 -3 60 -8 90 -11 72 -8 126 -14 175 -20
65 -8 196 -17 252 -19 29 0 53 -3 53 -6 0 -9 541 -12 725 -4 149 6 260 12 260
14 0 1 25 3 55 5 30 2 87 6 125 10 39 3 95 8 125 10 30 2 69 6 85 9 17 3 53 8
80 11 28 3 61 7 75 10 14 3 45 8 70 11 45 6 63 9 110 19 14 2 39 7 55 10 17 2
48 7 70 11 22 4 49 8 60 10 11 1 21 3 23 4 1 2 7 4 12 5 6 1 11 4 13 5 1 1 16
3 32 5 17 1 30 3 30 4 0 2 9 4 20 6 32 6 89 18 100 21 28 8 173 46 195 50 14
3 32 7 40 9 8 2 15 4 15 5 0 1 7 3 15 5 40 10 60 15 125 34 39 11 103 31 143
45 39 14 72 22 72 19 0 -3 7 0 15 7 8 7 15 9 15 5 0 -4 7 -2 15 5 8 7 15 9 15
5 0 -4 6 -3 13 2 10 9 80 36 97 38 3 0 53 19 112 43 59 23 112 42 118 42 5 0
10 4 10 8 0 5 6 9 13 9 6 0 41 13 77 30 36 16 82 36 103 43 20 8 37 18 37 22
0 4 5 8 12 8 14 0 227 106 313 156 33 19 72 40 88 47 15 6 27 15 27 19 0 4 5
8 10 8 11 0 37 16 185 113 357 234 616 461 862 757 51 61 158 204 183 245 13
22 28 42 32 43 4 2 8 10 8 17 0 8 6 20 13 27 6 8 20 27 29 43 27 46 140 274
142 288 1 6 10 29 19 50 20 45 85 251 91 287 3 14 5 26 7 28 1 1 3 7 4 12 1 6
3 11 4 13 1 1 4 17 7 36 2 19 7 46 10 60 34 165 38 569 7 695 -3 12 -6 33 -7
49 0 15 -5 27 -9 27 -4 0 -7 6 -6 13 1 6 -2 30 -6 52 -5 22 -10 42 -10 45 -9
48 -83 260 -117 340 -39 88 -129 266 -150 295 -4 5 -36 53 -70 105 -35 52 -71
104 -80 114 -10 11 -18 23 -18 27 0 4 -6 14 -13 21 -7 7 -44 51 -82 98 -39 47
-79 94 -90 106 -11 12 -43 45 -71 75 -70 73 -237 226 -310 284 -21 17 -42 35
-48 40 -42 41 -454 325 -471 325 -2 0 -29 16 -59 35 -30 19 -59 35 -64 35 -5
0 -15 7 -22 15 -7 8 -16 12 -21 9 -5 -3 -9 -1 -9 4 0 6 -12 15 -27 21 -16 6
-66 31 -113 56 -47 24 -91 45 -97 45 -7 0 -13 5 -13 10 0 6 -5 10 -11 10 -6 0
-38 13 -70 30 -33 16 -62 29 -64 29 -3 0 -25 8 -48 19 -84 39 -115 52 -122 52
-3 0 -25 8 -48 19 -23 10 -76 31 -117 45 -41 15 -82 30 -90 33 -8 4 -18 7 -22
8 -5 2 -10 4 -13 5 -3 1 -8 3 -12 5 -5 1 -17 5 -28 9 -32 13 -64 23 -170 55
-55 17 -114 36 -132 41 -18 6 -42 13 -54 15 -12 3 -61 16 -110 30 -48 14 -98
27 -111 29 -12 3 -23 5 -23 6 0 1 -11 4 -25 6 -14 3 -43 9 -65 15 -22 6 -49
13 -60 14 -11 2 -29 6 -40 8 -62 15 -259 51 -340 63 -27 3 -59 8 -70 11 -11 2
-38 6 -60 9 -22 2 -53 7 -70 9 -16 2 -52 7 -80 10 -27 3 -68 8 -90 11 -22 2
-67 7 -100 9 -90 6 -132 12 -144 19 -6 4 -11 2 -11 -4 0 -6 -5 -8 -10 -5 -13
8 -81 13 -290 21 -158 6 -450 11 -453 7z m3521 -2328 c-3 -3 -9 2 -12 12 -6
14 -5 15 5 6 7 -7 10 -15 7 -18z m177 -523 c-3 -3 -11 0 -18 7 -9 10 -8 11 6
5 10 -3 15 -9 12 -12z m-1035 -1566 c0 -2 -7 -7 -16 -10 -8 -3 -12 -2 -9 4 6
10 25 14 25 6z"/>
<path d="M1518 7385 c-2 -2 -25 -6 -53 -9 -72 -9 -107 -14 -135 -20 -14 -3
-35 -8 -48 -10 -12 -3 -26 -7 -30 -10 -5 -3 -22 -8 -38 -11 -37 -8 -43 -10
-77 -23 -16 -7 -33 -12 -38 -12 -8 0 -41 -13 -129 -53 -14 -6 -43 -23 -65 -36
-22 -13 -41 -23 -43 -22 -2 2 -28 -13 -59 -33 -30 -20 -59 -36 -63 -36 -4 0
-15 -9 -25 -20 -10 -11 -22 -20 -27 -20 -5 0 -15 -6 -22 -12 -7 -7 -27 -24
-45 -38 -44 -34 -187 -175 -234 -230 -49 -58 -157 -216 -157 -228 0 -6 -4 -12
-8 -14 -11 -4 -81 -149 -115 -238 -34 -85 -68 -210 -61 -221 3 -5 0 -9 -7 -9
-7 0 -10 -2 -7 -5 3 -4 2 -23 -3 -43 -22 -103 -33 -425 -17 -517 3 -16 9 -52
13 -80 4 -27 9 -54 12 -58 3 -5 7 -23 10 -40 18 -122 131 -381 228 -526 102
-152 247 -313 345 -381 19 -13 49 -37 65 -52 17 -15 34 -28 38 -28 5 0 23 -11
40 -24 18 -13 62 -40 99 -59 37 -20 75 -40 85 -46 39 -21 190 -80 223 -86 19
-4 40 -10 45 -13 6 -4 15 -7 20 -8 37 -7 62 -13 75 -18 15 -6 38 -10 140 -24
70 -9 368 -9 440 0 30 4 73 12 94 17 22 5 42 9 45 9 3 0 9 1 14 2 4 1 10 3 15
4 77 18 152 42 152 49 0 5 -22 42 -50 83 -27 41 -50 79 -50 84 0 6 -4 10 -9
10 -5 0 -12 8 -15 18 -3 9 -20 40 -36 67 -37 63 -104 201 -136 280 -14 33 -29
69 -34 80 -13 30 -30 89 -27 96 1 3 -3 12 -10 20 -12 15 -49 139 -67 229 -3
14 -8 36 -11 50 -20 88 -38 204 -39 258 -1 12 -3 22 -6 22 -6 0 -13 135 -13
275 0 160 12 294 38 445 18 104 20 115 34 165 6 22 12 49 14 60 4 22 32 119
52 180 22 68 87 228 112 274 13 24 23 50 23 57 0 8 5 14 10 14 6 0 10 5 10 11
0 7 10 28 22 48 13 20 23 39 23 43 0 4 5 15 12 25 90 132 153 238 149 249 -3
8 -16 14 -29 14 -13 0 -27 4 -33 9 -5 6 -22 12 -39 15 -50 9 -68 13 -110 24
-22 6 -65 14 -95 17 -56 7 -377 15 -382 10z"/>
<path d="M12347 7384 c-1 -1 -24 -5 -52 -9 -115 -16 -143 -21 -235 -46 -114
-30 -112 -25 -46 -124 51 -77 156 -251 156 -260 0 -1 22 -49 49 -106 50 -107
66 -149 63 -161 -1 -5 3 -8 8 -8 6 0 9 -3 8 -7 0 -5 1 -15 5 -23 6 -17 39
-116 55 -170 16 -53 50 -190 57 -230 3 -19 8 -42 10 -50 2 -8 6 -35 9 -60 3
-25 8 -56 11 -70 18 -90 23 -387 10 -550 -12 -145 -13 -165 -15 -165 -2 0 -7
-27 -14 -80 -3 -27 -10 -65 -15 -82 -5 -18 -7 -33 -4 -33 3 0 0 -6 -6 -13 -6
-8 -8 -17 -5 -20 3 -3 2 -12 -2 -19 -4 -7 -9 -19 -10 -28 -7 -47 -87 -294
-110 -339 -8 -14 -14 -30 -14 -35 0 -18 -152 -314 -171 -335 -11 -11 -17 -21
-14 -21 5 0 -66 -109 -100 -155 -8 -10 -15 -22 -15 -26 0 -10 63 -38 73 -32 5
3 12 1 16 -5 3 -6 20 -13 36 -16 17 -2 30 -5 30 -6 0 -1 9 -3 20 -4 11 -1 38
-6 60 -10 22 -5 50 -10 62 -12 73 -14 304 -18 408 -8 86 9 97 10 125 18 14 3
39 8 55 10 17 2 37 6 45 10 8 3 24 7 35 9 11 1 26 6 33 10 6 5 12 6 12 3 0 -5
147 46 178 63 10 6 22 8 24 5 3 -2 11 2 18 11 7 8 21 15 31 15 10 0 20 4 23 8
3 4 31 21 63 37 32 16 64 35 71 42 7 7 17 13 21 13 4 0 21 11 37 25 16 14 33
25 37 25 5 0 14 6 22 13 7 6 32 27 56 46 120 94 311 313 375 431 10 19 22 37
27 38 4 2 7 8 7 14 0 5 9 23 21 39 11 16 17 29 14 29 -4 0 2 15 13 33 47 78
126 326 138 437 3 25 9 57 14 72 5 17 5 30 -1 34 -6 3 -6 10 -1 17 9 13 8 279
-1 358 -8 59 -18 115 -31 164 -1 6 -6 26 -10 45 -20 94 -85 261 -144 370 -43
81 -98 169 -112 180 -4 3 -9 10 -11 16 -12 34 -205 238 -288 304 -24 19 -49
41 -56 48 -8 6 -18 12 -23 12 -6 0 -12 3 -14 8 -4 9 -66 50 -143 94 -58 33
-81 44 -175 86 -78 35 -244 88 -305 97 -11 2 -31 6 -45 9 -75 15 -141 19 -288
21 -89 0 -164 0 -165 -1z"/>
</g>
</svg>
