<svg width="84" height="84" viewBox="0 0 84 84" fill="none" xmlns="http://www.w3.org/2000/svg">
<path d="M84 0H0V84H84V0Z" fill="white"/>
<path d="M8.75 5.25H5.25V8.75H8.75V5.25Z" fill="black"/>
<path d="M12.25 5.25H8.75V8.75H12.25V5.25Z" fill="black"/>
<path d="M15.75 5.25H12.25V8.75H15.75V5.25Z" fill="black"/>
<path d="M19.25 5.25H15.75V8.75H19.25V5.25Z" fill="black"/>
<path d="M22.75 5.25H19.25V8.75H22.75V5.25Z" fill="black"/>
<path d="M26.25 5.25H22.75V8.75H26.25V5.25Z" fill="black"/>
<path d="M29.75 5.25H26.25V8.75H29.75V5.25Z" fill="black"/>
<path d="M36.75 5.25H33.25V8.75H36.75V5.25Z" fill="black"/>
<path d="M43.75 5.25H40.25V8.75H43.75V5.25Z" fill="black"/>
<path d="M50.75 5.25H47.25V8.75H50.75V5.25Z" fill="black"/>
<path d="M57.75 5.25H54.25V8.75H57.75V5.25Z" fill="black"/>
<path d="M61.25 5.25H57.75V8.75H61.25V5.25Z" fill="black"/>
<path d="M64.75 5.25H61.25V8.75H64.75V5.25Z" fill="black"/>
<path d="M68.25 5.25H64.75V8.75H68.25V5.25Z" fill="black"/>
<path d="M71.75 5.25H68.25V8.75H71.75V5.25Z" fill="black"/>
<path d="M75.25 5.25H71.75V8.75H75.25V5.25Z" fill="black"/>
<path d="M78.75 5.25H75.25V8.75H78.75V5.25Z" fill="black"/>
<path d="M8.75 8.75H5.25V12.25H8.75V8.75Z" fill="black"/>
<path d="M29.75 8.75H26.25V12.25H29.75V8.75Z" fill="black"/>
<path d="M43.75 8.75H40.25V12.25H43.75V8.75Z" fill="black"/>
<path d="M57.75 8.75H54.25V12.25H57.75V8.75Z" fill="black"/>
<path d="M78.75 8.75H75.25V12.25H78.75V8.75Z" fill="black"/>
<path d="M8.75 12.25H5.25V15.75H8.75V12.25Z" fill="black"/>
<path d="M15.75 12.25H12.25V15.75H15.75V12.25Z" fill="black"/>
<path d="M19.25 12.25H15.75V15.75H19.25V12.25Z" fill="black"/>
<path d="M22.75 12.25H19.25V15.75H22.75V12.25Z" fill="black"/>
<path d="M29.75 12.25H26.25V15.75H29.75V12.25Z" fill="black"/>
<path d="M40.25 12.25H36.75V15.75H40.25L40.25 12.25Z" fill="black"/>
<path d="M50.75 12.25H47.25V15.75H50.75V12.25Z" fill="black"/>
<path d="M57.75 12.25H54.25V15.75H57.75V12.25Z" fill="black"/>
<path d="M64.75 12.25H61.25V15.75H64.75V12.25Z" fill="black"/>
<path d="M68.25 12.25H64.75V15.75H68.25V12.25Z" fill="black"/>
<path d="M71.75 12.25H68.25V15.75H71.75V12.25Z" fill="black"/>
<path d="M78.75 12.25H75.25V15.75H78.75V12.25Z" fill="black"/>
<path d="M8.75 15.75H5.25V19.25H8.75V15.75Z" fill="black"/>
<path d="M15.75 15.75H12.25V19.25H15.75V15.75Z" fill="black"/>
<path d="M19.25 15.75H15.75V19.25H19.25V15.75Z" fill="black"/>
<path d="M22.75 15.75H19.25V19.25H22.75V15.75Z" fill="black"/>
<path d="M29.75 15.75H26.25V19.25H29.75V15.75Z" fill="black"/>
<path d="M40.25 15.75H36.75V19.25H40.25V15.75Z" fill="black"/>
<path d="M50.75 15.75H47.25V19.25H50.75V15.75Z" fill="black"/>
<path d="M57.75 15.75H54.25V19.25H57.75V15.75Z" fill="black"/>
<path d="M64.75 15.75H61.25V19.25H64.75V15.75Z" fill="black"/>
<path d="M68.25 15.75H64.75V19.25H68.25V15.75Z" fill="black"/>
<path d="M71.75 15.75H68.25V19.25H71.75V15.75Z" fill="black"/>
<path d="M78.75 15.75H75.25V19.25H78.75V15.75Z" fill="black"/>
<path d="M8.75 19.25H5.25V22.75H8.75V19.25Z" fill="black"/>
<path d="M15.75 19.25H12.25V22.75H15.75V19.25Z" fill="black"/>
<path d="M19.25 19.25H15.75V22.75H19.25V19.25Z" fill="black"/>
<path d="M22.75 19.25H19.25V22.75H22.75V19.25Z" fill="black"/>
<path d="M29.75 19.25H26.25V22.75H29.75V19.25Z" fill="black"/>
<path d="M36.75 19.25H33.25V22.75H36.75L36.75 19.25Z" fill="black"/>
<path d="M40.25 19.25H36.75L36.75 22.75H40.25V19.25Z" fill="black"/>
<path d="M43.75 19.25H40.25V22.75H43.75V19.25Z" fill="black"/>
<path d="M57.75 19.25H54.25V22.75H57.75V19.25Z" fill="black"/>
<path d="M64.75 19.25H61.25V22.75H64.75V19.25Z" fill="black"/>
<path d="M68.25 19.25H64.75V22.75H68.25V19.25Z" fill="black"/>
<path d="M71.75 19.25H68.25V22.75H71.75V19.25Z" fill="black"/>
<path d="M78.75 19.25H75.25V22.75H78.75V19.25Z" fill="black"/>
<path d="M8.75 22.75H5.25V26.25H8.75V22.75Z" fill="black"/>
<path d="M29.75 22.75H26.25V26.25H29.75V22.75Z" fill="black"/>
<path d="M43.75 22.75H40.25L40.25 26.25H43.75V22.75Z" fill="black"/>
<path d="M50.75 22.75H47.25V26.25H50.75V22.75Z" fill="black"/>
<path d="M57.75 22.75H54.25V26.25H57.75V22.75Z" fill="black"/>
<path d="M78.75 22.75H75.25V26.25H78.75V22.75Z" fill="black"/>
<path d="M8.75 26.25H5.25V29.75H8.75V26.25Z" fill="black"/>
<path d="M12.25 26.25H8.75V29.75H12.25V26.25Z" fill="black"/>
<path d="M15.75 26.25H12.25V29.75H15.75V26.25Z" fill="black"/>
<path d="M19.25 26.25H15.75V29.75H19.25V26.25Z" fill="black"/>
<path d="M22.75 26.25H19.25V29.75H22.75V26.25Z" fill="black"/>
<path d="M26.25 26.25H22.75V29.75H26.25V26.25Z" fill="black"/>
<path d="M29.75 26.25H26.25V29.75H29.75V26.25Z" fill="black"/>
<path d="M36.75 26.25H33.25V29.75H36.75V26.25Z" fill="black"/>
<path d="M43.75 26.25H40.25V29.75H43.75V26.25Z" fill="black"/>
<path d="M50.75 26.25H47.25V29.75H50.75V26.25Z" fill="black"/>
<path d="M57.75 26.25H54.25V29.75H57.75V26.25Z" fill="black"/>
<path d="M61.25 26.25H57.75V29.75H61.25V26.25Z" fill="black"/>
<path d="M64.75 26.25H61.25V29.75H64.75V26.25Z" fill="black"/>
<path d="M68.25 26.25H64.75V29.75H68.25V26.25Z" fill="black"/>
<path d="M71.75 26.25H68.25V29.75H71.75V26.25Z" fill="black"/>
<path d="M75.25 26.25H71.75V29.75H75.25V26.25Z" fill="black"/>
<path d="M78.75 26.25H75.25V29.75H78.75V26.25Z" fill="black"/>
<path d="M36.75 29.75H33.25V33.25H36.75V29.75Z" fill="black"/>
<path d="M40.25 29.75H36.75V33.25H40.25L40.25 29.75Z" fill="black"/>
<path d="M43.75 29.75H40.25L40.25 33.25H43.75V29.75Z" fill="black"/>
<path d="M47.25 29.75H43.75V33.25H47.25V29.75Z" fill="black"/>
<path d="M8.75 33.25H5.25V36.75H8.75V33.25Z" fill="black"/>
<path d="M19.25 33.25H15.75V36.75H19.25V33.25Z" fill="black"/>
<path d="M22.75 33.25H19.25V36.75H22.75V33.25Z" fill="black"/>
<path d="M26.25 33.25H22.75V36.75H26.25V33.25Z" fill="black"/>
<path d="M29.75 33.25H26.25V36.75H29.75V33.25Z" fill="black"/>
<path d="M33.25 33.25L29.75 33.25V36.75H33.25L33.25 33.25Z" fill="black"/>
<path d="M36.75 33.25H33.25L33.25 36.75H36.75V33.25Z" fill="black"/>
<path d="M47.25 33.25H43.75L43.75 36.75H47.25V33.25Z" fill="black"/>
<path d="M54.25 33.25H50.75V36.75H54.25V33.25Z" fill="black"/>
<path d="M57.75 33.25H54.25V36.75H57.75V33.25Z" fill="black"/>
<path d="M64.75 33.25H61.25V36.75H64.75V33.25Z" fill="black"/>
<path d="M78.75 33.25H75.25V36.75H78.75V33.25Z" fill="black"/>
<path d="M12.25 36.75L8.75 36.75V40.25H12.25V36.75Z" fill="black"/>
<path d="M15.75 36.75L12.25 36.75V40.25H15.75V36.75Z" fill="black"/>
<path d="M19.25 36.75H15.75V40.25H19.25V36.75Z" fill="black"/>
<path d="M22.75 36.75H19.25V40.25H22.75V36.75Z" fill="black"/>
<path d="M26.25 36.75H22.75V40.25H26.25V36.75Z" fill="black"/>
<path d="M40.25 36.75L36.75 36.75L36.75 40.25H40.25V36.75Z" fill="black"/>
<path d="M43.75 36.75L40.25 36.75V40.25H43.75L43.75 36.75Z" fill="black"/>
<path d="M61.25 36.75H57.75V40.25H61.25V36.75Z" fill="black"/>
<path d="M71.75 36.75H68.25V40.25H71.75V36.75Z" fill="black"/>
<path d="M78.75 36.75H75.25V40.25H78.75V36.75Z" fill="black"/>
<path d="M8.75 40.25L5.25 40.25V43.75H8.75V40.25Z" fill="black"/>
<path d="M12.25 40.25H8.75V43.75H12.25V40.25Z" fill="black"/>
<path d="M19.25 40.25H15.75V43.75H19.25V40.25Z" fill="black"/>
<path d="M29.75 40.25L26.25 40.25V43.75H29.75V40.25Z" fill="black"/>
<path d="M33.25 40.25H29.75V43.75H33.25V40.25Z" fill="black"/>
<path d="M36.75 40.25L33.25 40.25V43.75H36.75L36.75 40.25Z" fill="black"/>
<path d="M43.75 40.25H40.25L40.25 43.75H43.75V40.25Z" fill="black"/>
<path d="M47.25 40.25L43.75 40.25V43.75H47.25V40.25Z" fill="black"/>
<path d="M57.75 40.25L54.25 40.25V43.75H57.75V40.25Z" fill="black"/>
<path d="M61.25 40.25H57.75V43.75H61.25V40.25Z" fill="black"/>
<path d="M75.25 40.25H71.75V43.75H75.25V40.25Z" fill="black"/>
<path d="M78.75 40.25H75.25V43.75H78.75V40.25Z" fill="black"/>
<path d="M12.25 43.75H8.75V47.25H12.25V43.75Z" fill="black"/>
<path d="M15.75 43.75H12.25V47.25H15.75V43.75Z" fill="black"/>
<path d="M19.25 43.75H15.75V47.25H19.25V43.75Z" fill="black"/>
<path d="M22.75 43.75L19.25 43.75V47.25H22.75V43.75Z" fill="black"/>
<path d="M47.25 43.75H43.75L43.75 47.25H47.25V43.75Z" fill="black"/>
<path d="M50.75 43.75L47.25 43.75V47.25H50.75V43.75Z" fill="black"/>
<path d="M54.25 43.75L50.75 43.75V47.25H54.25V43.75Z" fill="black"/>
<path d="M57.75 43.75H54.25V47.25H57.75V43.75Z" fill="black"/>
<path d="M75.25 43.75H71.75V47.25H75.25V43.75Z" fill="black"/>
<path d="M78.75 43.75H75.25V47.25H78.75V43.75Z" fill="black"/>
<path d="M8.75 47.25H5.25V50.75H8.75V47.25Z" fill="black"/>
<path d="M22.75 47.25H19.25V50.75H22.75V47.25Z" fill="black"/>
<path d="M26.25 47.25H22.75V50.75H26.25V47.25Z" fill="black"/>
<path d="M29.75 47.25H26.25V50.75H29.75V47.25Z" fill="black"/>
<path d="M36.75 47.25H33.25V50.75H36.75V47.25Z" fill="black"/>
<path d="M40.25 47.25H36.75V50.75H40.25V47.25Z" fill="black"/>
<path d="M43.75 47.25H40.25V50.75H43.75L43.75 47.25Z" fill="black"/>
<path d="M47.25 47.25H43.75L43.75 50.75H47.25V47.25Z" fill="black"/>
<path d="M54.25 47.25H50.75V50.75H54.25V47.25Z" fill="black"/>
<path d="M64.75 47.25H61.25V50.75H64.75V47.25Z" fill="black"/>
<path d="M68.25 47.25H64.75V50.75H68.25V47.25Z" fill="black"/>
<path d="M71.75 47.25H68.25V50.75H71.75V47.25Z" fill="black"/>
<path d="M75.25 47.25H71.75V50.75H75.25V47.25Z" fill="black"/>
<path d="M36.75 50.75H33.25V54.25H36.75V50.75Z" fill="black"/>
<path d="M40.25 50.75H36.75V54.25H40.25V50.75Z" fill="black"/>
<path d="M43.75 50.75H40.25V54.25H43.75V50.75Z" fill="black"/>
<path d="M47.25 50.75H43.75V54.25H47.25V50.75Z" fill="black"/>
<path d="M54.25 50.75H50.75V54.25H54.25V50.75Z" fill="black"/>
<path d="M57.75 50.75H54.25V54.25H57.75V50.75Z" fill="black"/>
<path d="M64.75 50.75H61.25V54.25H64.75V50.75Z" fill="black"/>
<path d="M68.25 50.75H64.75V54.25H68.25V50.75Z" fill="black"/>
<path d="M78.75 50.75H75.25V54.25H78.75V50.75Z" fill="black"/>
<path d="M8.75 54.25H5.25V57.75H8.75V54.25Z" fill="black"/>
<path d="M12.25 54.25H8.75V57.75H12.25V54.25Z" fill="black"/>
<path d="M15.75 54.25H12.25V57.75H15.75V54.25Z" fill="black"/>
<path d="M19.25 54.25H15.75V57.75H19.25V54.25Z" fill="black"/>
<path d="M22.75 54.25H19.25V57.75H22.75V54.25Z" fill="black"/>
<path d="M26.25 54.25H22.75V57.75H26.25V54.25Z" fill="black"/>
<path d="M29.75 54.25H26.25V57.75H29.75V54.25Z" fill="black"/>
<path d="M36.75 54.25H33.25V57.75H36.75V54.25Z" fill="black"/>
<path d="M54.25 54.25H50.75V57.75H54.25V54.25Z" fill="black"/>
<path d="M57.75 54.25H54.25V57.75H57.75V54.25Z" fill="black"/>
<path d="M68.25 54.25H64.75V57.75H68.25V54.25Z" fill="black"/>
<path d="M78.75 54.25H75.25V57.75H78.75V54.25Z" fill="black"/>
<path d="M8.75 57.75H5.25V61.25H8.75V57.75Z" fill="black"/>
<path d="M29.75 57.75H26.25V61.25H29.75V57.75Z" fill="black"/>
<path d="M36.75 57.75H33.25V61.25H36.75V57.75Z" fill="black"/>
<path d="M47.25 57.75H43.75V61.25H47.25V57.75Z" fill="black"/>
<path d="M61.25 57.75H57.75V61.25H61.25V57.75Z" fill="black"/>
<path d="M64.75 57.75H61.25V61.25H64.75V57.75Z" fill="black"/>
<path d="M68.25 57.75H64.75V61.25H68.25V57.75Z" fill="black"/>
<path d="M75.25 57.75H71.75V61.25H75.25V57.75Z" fill="black"/>
<path d="M8.75 61.25H5.25V64.75H8.75V61.25Z" fill="black"/>
<path d="M15.75 61.25H12.25V64.75H15.75V61.25Z" fill="black"/>
<path d="M19.25 61.25H15.75V64.75H19.25V61.25Z" fill="black"/>
<path d="M22.75 61.25H19.25V64.75H22.75V61.25Z" fill="black"/>
<path d="M29.75 61.25H26.25V64.75H29.75V61.25Z" fill="black"/>
<path d="M36.75 61.25H33.25V64.75H36.75V61.25Z" fill="black"/>
<path d="M40.25 61.25H36.75V64.75H40.25V61.25Z" fill="black"/>
<path d="M43.75 61.25H40.25V64.75H43.75L43.75 61.25Z" fill="black"/>
<path d="M47.25 61.25H43.75L43.75 64.75H47.25V61.25Z" fill="black"/>
<path d="M50.75 61.25H47.25V64.75H50.75V61.25Z" fill="black"/>
<path d="M54.25 61.25H50.75V64.75H54.25V61.25Z" fill="black"/>
<path d="M57.75 61.25H54.25V64.75H57.75V61.25Z" fill="black"/>
<path d="M61.25 61.25H57.75V64.75H61.25V61.25Z" fill="black"/>
<path d="M68.25 61.25H64.75V64.75H68.25V61.25Z" fill="black"/>
<path d="M71.75 61.25H68.25V64.75H71.75V61.25Z" fill="black"/>
<path d="M75.25 61.25H71.75V64.75H75.25V61.25Z" fill="black"/>
<path d="M8.75 64.75H5.25V68.25H8.75V64.75Z" fill="black"/>
<path d="M15.75 64.75H12.25V68.25H15.75V64.75Z" fill="black"/>
<path d="M19.25 64.75H15.75V68.25H19.25V64.75Z" fill="black"/>
<path d="M22.75 64.75H19.25V68.25H22.75V64.75Z" fill="black"/>
<path d="M29.75 64.75H26.25V68.25H29.75V64.75Z" fill="black"/>
<path d="M36.75 64.75H33.25V68.25H36.75V64.75Z" fill="black"/>
<path d="M68.25 64.75H64.75V68.25H68.25V64.75Z" fill="black"/>
<path d="M71.75 64.75H68.25V68.25H71.75V64.75Z" fill="black"/>
<path d="M75.25 64.75H71.75V68.25H75.25V64.75Z" fill="black"/>
<path d="M8.75 68.25H5.25V71.75H8.75V68.25Z" fill="black"/>
<path d="M15.75 68.25H12.25V71.75H15.75V68.25Z" fill="black"/>
<path d="M19.25 68.25H15.75V71.75H19.25V68.25Z" fill="black"/>
<path d="M22.75 68.25H19.25V71.75H22.75V68.25Z" fill="black"/>
<path d="M29.75 68.25H26.25V71.75H29.75V68.25Z" fill="black"/>
<path d="M40.25 68.25H36.75L36.75 71.75H40.25V68.25Z" fill="black"/>
<path d="M43.75 68.25H40.25V71.75H43.75V68.25Z" fill="black"/>
<path d="M54.25 68.25H50.75V71.75H54.25V68.25Z" fill="black"/>
<path d="M71.75 68.25H68.25V71.75H71.75V68.25Z" fill="black"/>
<path d="M8.75 71.75H5.25V75.25H8.75V71.75Z" fill="black"/>
<path d="M29.75 71.75H26.25V75.25H29.75V71.75Z" fill="black"/>
<path d="M40.25 71.75H36.75V75.25H40.25V71.75Z" fill="black"/>
<path d="M43.75 71.75H40.25V75.25H43.75V71.75Z" fill="black"/>
<path d="M47.25 71.75H43.75V75.25H47.25V71.75Z" fill="black"/>
<path d="M50.75 71.75H47.25V75.25H50.75V71.75Z" fill="black"/>
<path d="M57.75 71.75H54.25V75.25H57.75V71.75Z" fill="black"/>
<path d="M64.75 71.75H61.25V75.25H64.75V71.75Z" fill="black"/>
<path d="M68.25 71.75H64.75V75.25H68.25V71.75Z" fill="black"/>
<path d="M8.75 75.25H5.25V78.75H8.75V75.25Z" fill="black"/>
<path d="M12.25 75.25H8.75V78.75H12.25V75.25Z" fill="black"/>
<path d="M15.75 75.25H12.25V78.75H15.75V75.25Z" fill="black"/>
<path d="M19.25 75.25H15.75V78.75H19.25V75.25Z" fill="black"/>
<path d="M22.75 75.25H19.25V78.75H22.75V75.25Z" fill="black"/>
<path d="M26.25 75.25H22.75V78.75H26.25V75.25Z" fill="black"/>
<path d="M29.75 75.25H26.25V78.75H29.75V75.25Z" fill="black"/>
<path d="M36.75 75.25H33.25V78.75H36.75L36.75 75.25Z" fill="black"/>
<path d="M47.25 75.25H43.75L43.75 78.75H47.25V75.25Z" fill="black"/>
<path d="M50.75 75.25H47.25V78.75H50.75V75.25Z" fill="black"/>
<path d="M61.25 75.25H57.75V78.75H61.25V75.25Z" fill="black"/>
<path d="M68.25 75.25H64.75V78.75H68.25V75.25Z" fill="black"/>
<path d="M78.75 75.25H75.25V78.75H78.75V75.25Z" fill="black"/>
</svg>
