<svg width="196" height="102" viewBox="0 0 196 102" fill="none" xmlns="http://www.w3.org/2000/svg">
<g filter="url(#filter0_d_1411_18699)">
<rect x="27" y="12" width="142" height="48" rx="24" fill="#57B7CC"/>
<rect x="27" y="12" width="142" height="48" rx="24" fill="url(#paint0_linear_1411_18699)"/>
<path d="M63.3278 30.976V32.72H66.4798V42H68.4318V32.72H71.5838V30.976H63.3278ZM75.5649 34.336C74.6369 34.336 73.8209 34.88 73.4209 36.128V34.528H71.5649V42H73.4369V39.392C73.4369 37.296 74.1089 36.08 75.3249 36.08C75.5969 36.08 75.9809 36.128 76.4129 36.352L76.7809 34.592C76.4929 34.432 76.0129 34.336 75.5649 34.336ZM81.0261 39.264L79.0901 34.528H77.0581L80.0341 41.472L78.3541 45.648H80.3061L84.9461 34.528H82.9461L81.0261 39.264ZM90.8679 33.024C91.5399 33.024 92.0679 32.528 92.0679 31.888C92.0679 31.232 91.5399 30.752 90.8679 30.752C90.2119 30.752 89.6519 31.232 89.6519 31.888C89.6519 32.528 90.2119 33.024 90.8679 33.024ZM91.7959 42V34.528H89.9399V42H91.7959ZM96.5304 34.528V31.776H94.6744V34.528H93.3304V36H94.6744V42H96.5304V36H98.1144V34.528H96.5304ZM107.616 34.336C106.848 34.336 105.68 34.768 105.296 35.712V34.528H103.44V42H105.296V38.032C105.296 36.592 106.352 36.096 107.2 36.096C108.032 36.096 108.752 36.736 108.752 37.936V42H110.608V37.808C110.608 35.632 109.536 34.336 107.616 34.336ZM116.225 42.192C118.353 42.192 120.209 40.624 120.209 38.256C120.209 35.888 118.353 34.336 116.225 34.336C114.097 34.336 112.257 35.888 112.257 38.256C112.257 40.624 114.097 42.192 116.225 42.192ZM116.225 40.464C115.073 40.464 114.129 39.568 114.129 38.256C114.129 36.976 115.073 36.064 116.225 36.064C117.377 36.064 118.337 36.976 118.337 38.256C118.337 39.568 117.377 40.464 116.225 40.464ZM129.255 39.344L127.671 34.528H126.023L124.439 39.344L122.855 34.528H120.855L123.623 42H125.175L126.839 36.896L128.583 42H130.151L132.839 34.528H130.839L129.255 39.344Z" fill="white"/>
</g>
<g filter="url(#filter1_d_1411_18699)">
<rect x="27" y="12" width="142" height="48" rx="24" fill="#57B7CC"/>
<rect x="27" y="12" width="142" height="48" rx="24" fill="url(#paint1_linear_1411_18699)"/>
<path d="M63.3278 30.976V32.72H66.4798V42H68.4318V32.72H71.5838V30.976H63.3278ZM75.5649 34.336C74.6369 34.336 73.8209 34.88 73.4209 36.128V34.528H71.5649V42H73.4369V39.392C73.4369 37.296 74.1089 36.08 75.3249 36.08C75.5969 36.08 75.9809 36.128 76.4129 36.352L76.7809 34.592C76.4929 34.432 76.0129 34.336 75.5649 34.336ZM81.0261 39.264L79.0901 34.528H77.0581L80.0341 41.472L78.3541 45.648H80.3061L84.9461 34.528H82.9461L81.0261 39.264ZM90.8679 33.024C91.5399 33.024 92.0679 32.528 92.0679 31.888C92.0679 31.232 91.5399 30.752 90.8679 30.752C90.2119 30.752 89.6519 31.232 89.6519 31.888C89.6519 32.528 90.2119 33.024 90.8679 33.024ZM91.7959 42V34.528H89.9399V42H91.7959ZM96.5304 34.528V31.776H94.6744V34.528H93.3304V36H94.6744V42H96.5304V36H98.1144V34.528H96.5304ZM107.616 34.336C106.848 34.336 105.68 34.768 105.296 35.712V34.528H103.44V42H105.296V38.032C105.296 36.592 106.352 36.096 107.2 36.096C108.032 36.096 108.752 36.736 108.752 37.936V42H110.608V37.808C110.608 35.632 109.536 34.336 107.616 34.336ZM116.225 42.192C118.353 42.192 120.209 40.624 120.209 38.256C120.209 35.888 118.353 34.336 116.225 34.336C114.097 34.336 112.257 35.888 112.257 38.256C112.257 40.624 114.097 42.192 116.225 42.192ZM116.225 40.464C115.073 40.464 114.129 39.568 114.129 38.256C114.129 36.976 115.073 36.064 116.225 36.064C117.377 36.064 118.337 36.976 118.337 38.256C118.337 39.568 117.377 40.464 116.225 40.464ZM129.255 39.344L127.671 34.528H126.023L124.439 39.344L122.855 34.528H120.855L123.623 42H125.175L126.839 36.896L128.583 42H130.151L132.839 34.528H130.839L129.255 39.344Z" fill="white"/>
</g>
<rect x="21.5" y="7.5" width="153" height="57" rx="28.5" stroke="url(#paint2_linear_1411_18699)"/>
<defs>
<filter id="filter0_d_1411_18699" x="0" y="0" width="196" height="102" filterUnits="userSpaceOnUse" color-interpolation-filters="sRGB">
<feFlood flood-opacity="0" result="BackgroundImageFix"/>
<feColorMatrix in="SourceAlpha" type="matrix" values="0 0 0 0 0 0 0 0 0 0 0 0 0 0 0 0 0 0 127 0" result="hardAlpha"/>
<feOffset dy="15"/>
<feGaussianBlur stdDeviation="13.5"/>
<feComposite in2="hardAlpha" operator="out"/>
<feColorMatrix type="matrix" values="0 0 0 0 0.228 0 0 0 0 0.772 0 0 0 0 0.644 0 0 0 0.2 0"/>
<feBlend mode="normal" in2="BackgroundImageFix" result="effect1_dropShadow_1411_18699"/>
<feBlend mode="normal" in="SourceGraphic" in2="effect1_dropShadow_1411_18699" result="shape"/>
</filter>
<filter id="filter1_d_1411_18699" x="0" y="0" width="196" height="102" filterUnits="userSpaceOnUse" color-interpolation-filters="sRGB">
<feFlood flood-opacity="0" result="BackgroundImageFix"/>
<feColorMatrix in="SourceAlpha" type="matrix" values="0 0 0 0 0 0 0 0 0 0 0 0 0 0 0 0 0 0 127 0" result="hardAlpha"/>
<feOffset dy="15"/>
<feGaussianBlur stdDeviation="13.5"/>
<feComposite in2="hardAlpha" operator="out"/>
<feColorMatrix type="matrix" values="0 0 0 0 0.228 0 0 0 0 0.772 0 0 0 0 0.644 0 0 0 0.2 0"/>
<feBlend mode="normal" in2="BackgroundImageFix" result="effect1_dropShadow_1411_18699"/>
<feBlend mode="normal" in="SourceGraphic" in2="effect1_dropShadow_1411_18699" result="shape"/>
</filter>
<linearGradient id="paint0_linear_1411_18699" x1="27" y1="15.75" x2="166.942" y2="38.9341" gradientUnits="userSpaceOnUse">
<stop stop-color="#23D67D" stop-opacity="0"/>
<stop offset="1" stop-color="#23D67D"/>
</linearGradient>
<linearGradient id="paint1_linear_1411_18699" x1="27" y1="15.75" x2="166.942" y2="38.9341" gradientUnits="userSpaceOnUse">
<stop stop-color="#23D67D" stop-opacity="0"/>
<stop offset="1" stop-color="#23D67D"/>
</linearGradient>
<linearGradient id="paint2_linear_1411_18699" x1="98" y1="7" x2="98" y2="65" gradientUnits="userSpaceOnUse">
<stop stop-color="#56B7CB"/>
<stop offset="1" stop-color="#25D57F"/>
</linearGradient>
</defs>
</svg>
