<svg width="20" height="16" viewBox="0 0 20 16" fill="none" xmlns="http://www.w3.org/2000/svg">
<path d="M17.633 3.99753C17.646 4.17253 17.646 4.34653 17.646 4.52053C17.646 9.84553 13.593 15.9815 6.186 15.9815C3.904 15.9815 1.784 15.3205 0 14.1725C0.324 14.2095 0.636 14.2225 0.973 14.2225C2.78599 14.2269 4.54765 13.6207 5.974 12.5015C5.13342 12.4863 4.31858 12.209 3.64324 11.7083C2.9679 11.2075 2.46578 10.5084 2.207 9.70853C2.456 9.74553 2.706 9.77053 2.968 9.77053C3.329 9.77053 3.692 9.72053 4.029 9.63353C3.11676 9.44934 2.29647 8.95488 1.70762 8.23422C1.11876 7.51355 0.797693 6.61118 0.799 5.68053V5.63053C1.336 5.92953 1.959 6.11653 2.619 6.14153C2.06609 5.77412 1.61272 5.27555 1.29934 4.69032C0.98596 4.10509 0.822313 3.45139 0.823 2.78753C0.823 2.03953 1.022 1.35353 1.371 0.755532C2.38314 2.00055 3.6455 3.01909 5.07634 3.74519C6.50717 4.47129 8.07456 4.88875 9.677 4.97053C9.615 4.67053 9.577 4.35953 9.577 4.04753C9.57674 3.51849 9.68075 2.99459 9.88308 2.50577C10.0854 2.01695 10.3821 1.57281 10.7562 1.19872C11.1303 0.824633 11.5744 0.527943 12.0632 0.32561C12.5521 0.123277 13.076 0.0192689 13.605 0.0195317C14.765 0.0195317 15.812 0.505532 16.548 1.29153C17.4498 1.11715 18.3145 0.787954 19.104 0.318532C18.8034 1.24935 18.1738 2.03864 17.333 2.53853C18.1328 2.44731 18.9144 2.23698 19.652 1.91453C19.1011 2.71763 18.4185 3.42188 17.633 3.99753Z" fill="#282856" fill-opacity="0.6"/>
</svg>
