<svg width="18" height="20" viewBox="0 0 18 20" fill="none" xmlns="http://www.w3.org/2000/svg">
<path d="M3.75 5.5C3.75 6.89239 4.30312 8.22774 5.28769 9.21231C6.27226 10.1969 7.60761 10.75 9 10.75C10.3924 10.75 11.7277 10.1969 12.7123 9.21231C13.6969 8.22774 14.25 6.89239 14.25 5.5C14.25 4.10761 13.6969 2.77226 12.7123 1.78769C11.7277 0.803123 10.3924 0.25 9 0.25C7.60761 0.25 6.27226 0.803123 5.28769 1.78769C4.30312 2.77226 3.75 4.10761 3.75 5.5ZM16.5 19.75H0.75C0.551088 19.75 0.360322 19.671 0.21967 19.5303C0.0790178 19.3897 0 19.1989 0 19V16.75C0 15.7554 0.395088 14.8016 1.09835 14.0983C1.80161 13.3951 2.75544 13 3.75 13H14.25C15.2446 13 16.1984 13.3951 16.9017 14.0983C17.6049 14.8016 18 15.7554 18 16.75V19C18 19.1989 17.921 19.3897 17.7803 19.5303C17.6397 19.671 17.4489 19.75 17.25 19.75H16.5Z" fill="#56CBBD"/>
</svg>
