<svg width="215" height="59" viewBox="0 0 215 59" fill="none" xmlns="http://www.w3.org/2000/svg">
<g clip-path="url(#clip0_9_463)">
<path d="M13.1138 38.1262C13.0886 37.3947 13.1559 36.6633 13.2655 35.9403C13.4171 34.8557 13.7204 33.8132 14.1247 32.8043C14.5712 31.6861 15.1609 30.6436 15.8433 29.6515C16.711 28.3904 17.7388 27.2807 18.8508 26.255C19.7101 25.4647 20.6452 24.75 21.614 24.0859C22.6418 23.388 23.7033 22.7659 24.79 22.1774C25.5229 21.7906 26.2811 21.4459 27.0477 21.118C27.629 20.8658 28.2271 20.6304 28.8253 20.4118C29.8867 20.0251 30.9651 19.6636 32.0602 19.3777C32.6584 19.218 33.2565 19.033 33.863 18.8985C34.6465 18.7219 35.43 18.5706 36.2219 18.4277C36.8368 18.3184 37.4602 18.2175 38.0837 18.1418C38.6565 18.0662 39.2378 18.0325 39.8106 17.9569C40.4593 17.8728 41.1164 17.8644 41.7735 17.7971C42.1105 17.7635 42.4475 17.7635 42.776 17.7551C43.8038 17.7299 44.8231 17.7215 45.8509 17.7551C46.7186 17.7803 47.5779 17.8224 48.4456 17.9064C49.1785 17.9821 49.9199 18.0409 50.6528 18.1334C51.2088 18.2007 51.7648 18.31 52.3293 18.3856C53.197 18.5118 54.0563 18.7051 54.9155 18.8985C55.7327 19.0835 56.5414 19.3189 57.3418 19.5459C58.6223 19.9074 59.8691 20.353 61.099 20.849C62.5733 21.4459 63.997 22.1353 65.3702 22.9424C66.2042 23.4301 67.0298 23.9513 67.8132 24.523C68.4956 25.0191 69.1527 25.5571 69.7845 26.1204C70.3406 26.6165 70.8713 27.1293 71.3683 27.6758C71.8822 28.2391 72.3624 28.8276 72.8005 29.4498C73.1627 29.9626 73.5165 30.4755 73.8282 31.0304C74.2663 31.8206 74.637 32.6362 74.9318 33.4853C75.1761 34.1915 75.3699 34.9146 75.4963 35.646C75.5721 36.0664 75.6226 36.4952 75.6479 36.9323C75.6732 37.3359 75.69 37.7394 75.6732 38.143C75.6058 38.143 75.53 38.143 75.4626 38.143C72.4972 38.143 69.5318 38.143 66.5664 38.143C66.5664 37.9917 66.5664 37.8319 66.5664 37.6806C66.6001 37.3359 66.6086 36.9912 66.5664 36.6381C66.558 35.8898 66.4569 35.15 66.2716 34.4185C66.0104 33.3844 65.5892 32.426 65.0079 31.5348C64.0897 30.1308 62.885 29.0378 61.4023 28.2559C60.046 27.5413 58.5886 27.163 57.0469 27.163C55.4041 27.163 53.7698 27.1545 52.1271 27.1545C50.4001 27.1545 48.6815 27.1461 46.9545 27.1461C45.0338 27.1461 43.113 27.1545 41.1922 27.1545C39.3389 27.1545 37.4939 27.1461 35.6406 27.1461C34.7981 27.1461 33.9557 27.1545 33.1217 27.1545C32.1445 27.1461 31.1757 27.1293 30.2069 27.2975C29.137 27.4824 28.126 27.844 27.1825 28.3736C26.298 28.8612 25.5145 29.4834 24.8237 30.2232C23.9728 31.1312 23.3157 32.1653 22.8777 33.3256C22.4901 34.3345 22.2711 35.3854 22.2543 36.4699C22.2121 36.5036 22.2121 36.5456 22.2543 36.5876C22.2543 37.0921 22.2543 37.5965 22.2458 38.1094C22.1447 38.1514 22.0437 38.1514 21.9341 38.1514C18.9856 38.1262 16.0455 38.1262 13.1138 38.1262Z" fill="#CBCCE3"/>
<path d="M66.5496 38.1262C69.5149 38.1262 72.4803 38.1262 75.4457 38.1262C75.5131 38.1262 75.5889 38.1262 75.6563 38.1262C75.6563 39.2865 75.471 40.4215 75.1593 41.5312C74.6959 43.1623 73.9714 44.6588 73.0026 46.0544C72.4551 46.8447 71.8401 47.5929 71.183 48.2992C69.9193 49.6696 68.4788 50.8298 66.9371 51.8723C65.9851 52.5197 64.9826 53.0914 63.9549 53.6294C62.1436 54.5711 60.2566 55.3361 58.3105 55.9583C57.4344 56.2357 56.5583 56.4795 55.6653 56.7065C54.6122 56.9756 53.5423 57.2026 52.4724 57.3875C51.63 57.5305 50.7791 57.6566 49.9199 57.7491C48.8668 57.8584 47.8222 57.9424 46.7691 58.0013C45.5729 58.0685 44.3766 58.0938 43.1804 58.0601C42.2116 58.0349 41.2343 57.9845 40.274 57.892C38.1594 57.6986 36.0534 57.4044 33.981 56.9167C31.9423 56.4375 29.9373 55.849 27.9912 55.0671C26.2979 54.3861 24.6636 53.5958 23.0967 52.6626C21.774 51.8723 20.5188 50.9811 19.3478 49.9806C17.8314 48.6859 16.5088 47.223 15.4389 45.5415C14.8071 44.5579 14.2932 43.507 13.8973 42.4056C13.5603 41.464 13.3328 40.5055 13.2065 39.5219C13.1475 39.0595 13.0885 38.5802 13.1138 38.1094C16.0455 38.1094 18.9772 38.1094 21.9173 38.1094C22.0268 38.1094 22.1279 38.1094 22.229 38.0674C22.229 38.1683 22.2374 38.2608 22.2374 38.3616C22.2121 39.3789 22.2458 40.3878 22.507 41.3715C22.9282 42.9857 23.7032 44.4065 24.8489 45.6172C25.6998 46.5168 26.6939 47.2314 27.8227 47.7527C29.1622 48.3748 30.5691 48.6523 32.0349 48.6523C40.215 48.6523 48.3866 48.6523 56.5667 48.6523C57.5692 48.6523 58.5548 48.5682 59.5152 48.2908C60.5346 47.9965 61.4949 47.5509 62.3795 46.9372C63.2472 46.3402 64.0054 45.6256 64.6288 44.7849C65.3028 43.8769 65.8251 42.8932 66.1368 41.7919C66.3305 41.1277 66.4653 40.4551 66.5243 39.7741C66.5664 39.2444 66.5411 38.6811 66.5496 38.1262Z" fill="#B1B2CD"/>
<path d="M66.4654 0.023728C66.4233 0.368431 66.3138 0.671096 66.2211 0.98217C65.6904 2.76453 65.0164 4.48805 64.1403 6.12749C62.8513 8.54881 61.1917 10.6843 58.993 12.3658C56.9122 13.9548 54.5786 14.9636 52.0092 15.4513C50.2316 15.7876 48.4457 15.8632 46.6513 15.7287C45.6067 15.6531 44.562 15.4933 43.5427 15.2327C43.3995 15.1991 43.3152 15.1318 43.2731 14.9889C42.835 13.6185 42.5907 12.2228 42.5486 10.7852C42.4981 9.16255 42.7171 7.59037 43.3658 6.09386C44.1492 4.27786 45.4297 2.89905 47.1146 1.87335C48.5299 1.0158 50.0547 0.444097 51.689 0.166653C52.9359 -0.043531 54.1827 -0.0351237 55.4379 0.0825797C56.7184 0.20869 57.9821 0.418875 59.2541 0.578615C61.6298 0.872874 63.9802 0.822429 66.2801 0.0657649C66.339 0.0489502 66.398 0.0405428 66.4654 0.023728Z" fill="#00D873"/>
<path d="M10.4012 27.8271C11.5553 27.8019 12.6337 27.9868 13.6867 28.3315C13.8636 28.3904 13.8552 28.4492 13.7625 28.5837C12.5747 30.2316 11.7238 32.0308 11.2099 33.9981C10.9825 34.8725 10.8224 35.7637 10.7382 36.6717C10.6708 37.4115 10.6371 38.1514 10.6708 38.8912C10.7213 39.9421 10.8645 40.9846 11.1004 42.0187C11.4205 43.4312 11.9344 44.7596 12.6 46.0291C12.9454 46.6933 13.3497 47.3238 13.7794 47.9375C13.8636 48.0553 13.8299 48.0805 13.7204 48.1141C12.9454 48.3579 12.1535 48.5345 11.3447 48.6017C10.9067 48.6354 10.4602 48.6438 10.0221 48.627C8.93536 48.5933 7.88231 48.3831 6.86297 48.0132C5.66671 47.5844 4.58839 46.9371 3.61958 46.1131C2.42332 45.0874 1.51349 43.8432 0.873239 42.3971C0.485718 41.5227 0.232987 40.6063 0.0981971 39.6647C-0.0281684 38.7819 -0.0281684 37.8991 0.072924 37.0164C0.232987 35.6712 0.628932 34.4101 1.27761 33.2246C1.65671 32.5352 2.11162 31.9047 2.63393 31.3161C3.51007 30.3241 4.54626 29.5338 5.72568 28.9369C6.66921 28.4576 7.65486 28.1213 8.69948 27.9616C9.28918 27.8691 9.86204 27.8103 10.4012 27.8271Z" fill="#B1B2CD"/>
<path d="M78.1416 27.8272C79.877 27.802 81.4945 28.2308 83.0193 29.0295C84.0976 29.5928 85.0411 30.3326 85.8583 31.2322C86.6839 32.1318 87.3325 33.1491 87.7875 34.2841C88.175 35.2425 88.4193 36.2346 88.512 37.2603C88.6299 38.6812 88.5035 40.0768 88.057 41.4388C87.7032 42.5401 87.1641 43.5406 86.4733 44.4738C85.7572 45.4323 84.8979 46.231 83.9123 46.8952C82.6402 47.7443 81.2586 48.2824 79.7422 48.5178C79.0261 48.6271 78.31 48.6607 77.5855 48.6271C76.6589 48.5851 75.7574 48.4253 74.8729 48.1226C74.7381 48.0722 74.7128 48.0386 74.8055 47.9041C75.9596 46.3066 76.7937 44.5495 77.3244 42.6494C77.6108 41.6069 77.7877 40.5392 77.8635 39.4546C77.9141 38.7232 77.9225 37.9833 77.8804 37.2519C77.8214 36.1169 77.6361 34.9987 77.3328 33.8889C77.0127 32.6867 76.5493 31.5433 75.9765 30.4419C75.6395 29.7946 75.252 29.1808 74.8308 28.5923C74.7213 28.441 74.7213 28.3821 74.915 28.3233C75.6395 28.0879 76.3724 27.9449 77.1306 27.8693C77.476 27.8356 77.8046 27.844 78.1416 27.8272Z" fill="#B1B2CD"/>
<path d="M66.5496 38.1261C66.5412 38.6894 66.558 39.2443 66.5159 39.8076C66.4654 40.4886 66.3221 41.1612 66.1284 41.8254C65.8082 42.9184 65.2944 43.9104 64.6204 44.8184C63.997 45.6592 63.2388 46.3738 62.3711 46.9707C61.4866 47.576 60.5346 48.03 59.5068 48.3243C58.5464 48.5933 57.5608 48.6858 56.5583 48.6858C48.3782 48.6774 40.2066 48.6774 32.0265 48.6858C30.5523 48.6858 29.1538 48.4084 27.8144 47.7862C26.6855 47.265 25.6914 46.5419 24.8406 45.6508C23.6948 44.4401 22.9198 43.0192 22.4986 41.405C22.2459 40.413 22.2037 39.4041 22.229 38.3952C22.229 38.2943 22.2206 38.2018 22.2206 38.1009C22.2206 37.5965 22.2206 37.092 22.229 36.5792C22.229 36.5372 22.229 36.5035 22.229 36.4615C22.2543 35.3769 22.4733 34.326 22.8524 33.3171C23.2989 32.1569 23.956 31.1228 24.7984 30.2148C25.4892 29.4749 26.2727 28.8528 27.1573 28.3652C28.1092 27.8355 29.1117 27.474 30.1816 27.289C31.1504 27.1209 32.1192 27.1461 33.0964 27.1461C33.9389 27.1545 34.7813 27.1377 35.6153 27.1377C37.4687 27.1377 39.3136 27.1461 41.167 27.1461C43.0877 27.1461 45.0085 27.1377 46.9292 27.1377C48.6562 27.1377 50.3748 27.1377 52.1018 27.1461C53.7446 27.1461 55.3789 27.1545 57.0216 27.1545C58.5633 27.1545 60.0207 27.5244 61.377 28.2475C62.8597 29.0294 64.0728 30.1223 64.9827 31.5264C65.5639 32.4175 65.9936 33.376 66.2463 34.4101C66.4317 35.1331 66.5243 35.873 66.5412 36.6296C66.5243 36.9743 66.5159 37.319 66.5412 37.6721C66.5496 37.8151 66.5496 37.9664 66.5496 38.1261ZM44.4272 29.7608C40.274 29.7608 36.1208 29.7692 31.9676 29.7608C30.5776 29.7608 29.2886 30.0971 28.1176 30.8454C26.5928 31.8206 25.5819 33.191 25.0933 34.9313C24.8658 35.7469 24.8321 36.5708 24.849 37.4031C24.8743 38.2943 24.79 39.1771 24.9248 40.0683C25.2281 42.0104 26.1885 43.5657 27.7722 44.7259C29.0864 45.6844 30.586 46.0795 32.2035 46.0543C33.0459 46.0459 33.8968 46.0375 34.7392 46.0375C35.4805 46.0375 36.2219 46.0543 36.9632 46.0543C37.8646 46.0543 38.766 46.0207 39.6674 46.0459C40.3161 46.0627 40.9648 46.0291 41.6219 46.0543C42.498 46.0795 43.3657 46.0459 44.2419 46.0459C45.1433 46.0459 46.0447 46.0627 46.9461 46.0627C47.6874 46.0627 48.4288 46.0291 49.1701 46.0459C49.8441 46.0627 50.5264 46.0291 51.2004 46.0459C51.63 46.0543 52.0513 46.0459 52.4809 46.0459C53.1043 46.0459 53.7277 46.0543 54.3427 46.0543C54.7555 46.0543 55.1683 46.0375 55.5811 46.0459C56.3224 46.0627 57.0638 46.0879 57.8051 45.987C59.6416 45.7516 61.1496 44.9025 62.329 43.4901C63.1967 42.4559 63.7359 41.2537 63.8706 39.9169C63.997 38.6474 63.9802 37.3695 63.8875 36.1C63.7696 34.5278 63.1293 33.1574 62.051 32.0056C60.6525 30.5259 58.9255 29.7692 56.8784 29.7692C52.7252 29.7608 48.5804 29.7608 44.4272 29.7608Z" fill="#00D873"/>
<path d="M66.5496 37.6553C66.5244 37.3106 66.5328 36.9659 66.5496 36.6128C66.5918 36.9659 66.5918 37.3106 66.5496 37.6553Z" fill="#B1B2CD"/>
<path d="M22.229 36.4531C22.229 36.4952 22.229 36.5288 22.229 36.5708C22.1953 36.5288 22.1953 36.4868 22.229 36.4531Z" fill="#B1B2CD"/>
<path d="M44.4272 29.7605C48.572 29.7605 52.7168 29.7605 56.87 29.7605C58.9172 29.7605 60.6442 30.5088 62.0426 31.9969C63.1209 33.1487 63.7612 34.5191 63.8791 36.0913C63.9718 37.3608 63.9971 38.6387 63.8623 39.9082C63.7275 41.245 63.1883 42.4473 62.3206 43.4814C61.1412 44.8938 59.6332 45.7429 57.7967 45.9784C57.0638 46.0708 56.314 46.054 55.5727 46.0372C55.1599 46.0288 54.7471 46.0456 54.3343 46.0456C53.7109 46.0456 53.0875 46.0372 52.4725 46.0372C52.0429 46.0372 51.6217 46.054 51.192 46.0372C50.5181 46.0204 49.8357 46.054 49.1617 46.0372C48.4204 46.0204 47.6791 46.054 46.9377 46.054C46.0363 46.054 45.1349 46.0372 44.2335 46.0372C43.3574 46.0372 42.4896 46.0708 41.6135 46.0456C40.9648 46.0288 40.3162 46.054 39.6591 46.0372C38.7576 46.012 37.8562 46.0456 36.9548 46.0456C36.2135 46.0456 35.4721 46.0288 34.7308 46.0288C33.8884 46.0288 33.0375 46.0372 32.1951 46.0456C30.5776 46.0708 29.078 45.6757 27.7638 44.7172C26.1801 43.557 25.2197 42.0101 24.9164 40.0596C24.7732 39.1768 24.8574 38.2856 24.8406 37.3944C24.8237 36.5621 24.8574 35.7298 25.0849 34.9226C25.5735 33.1739 26.5844 31.8119 28.1092 30.8367C29.2802 30.0884 30.5692 29.7437 31.9592 29.7521C36.1208 29.7689 40.274 29.7605 44.4272 29.7605ZM35.8597 36.478C34.2253 36.5032 32.7595 36.974 31.4537 37.9241C31.2684 38.0586 31.1336 38.2352 31.083 38.4622C31.0072 38.8237 31.1504 39.1852 31.4453 39.3786C31.7654 39.5887 32.1445 39.5803 32.4731 39.3449C33.3829 38.6891 34.3938 38.3024 35.5143 38.2436C36.8622 38.1679 38.0921 38.5294 39.1873 39.3281C39.4484 39.5215 39.7349 39.5887 40.0381 39.4794C40.3751 39.3617 40.5689 39.1179 40.6194 38.7732C40.67 38.4201 40.5183 38.1343 40.2319 37.9241C38.9261 36.9656 37.4519 36.5116 35.8597 36.478ZM55.7328 39.5299C56.1961 39.5299 56.5246 39.3029 56.651 38.9414C56.7858 38.5546 56.651 38.1847 56.2888 37.9157C53.7109 36.0072 50.1221 36.0156 47.5274 37.9241C47.0978 38.2436 47.0051 38.7648 47.3 39.1768C47.5864 39.5719 48.1255 39.6392 48.5552 39.3365C50.6529 37.8568 53.1717 37.8568 55.2863 39.3449C55.4463 39.471 55.6232 39.5299 55.7328 39.5299Z" fill="#15184C"/>
<path d="M35.8597 36.478C37.4519 36.5032 38.9262 36.9657 40.2404 37.9241C40.5268 38.1343 40.6784 38.4201 40.6279 38.7732C40.5773 39.1179 40.3836 39.3702 40.0466 39.4795C39.7349 39.5804 39.4569 39.5131 39.1957 39.3281C38.1006 38.5378 36.8706 38.1679 35.5227 38.2436C34.4023 38.3024 33.3913 38.6892 32.4815 39.3449C32.1614 39.5804 31.7739 39.5888 31.4537 39.3786C31.1589 39.1852 31.0072 38.8153 31.0915 38.4622C31.142 38.2352 31.2768 38.0586 31.4622 37.9241C32.7595 36.9825 34.2254 36.5032 35.8597 36.478Z" fill="#F7F9FA"/>
<path d="M55.7327 39.53C55.6232 39.53 55.4463 39.4628 55.2863 39.3535C53.1717 37.8654 50.6528 37.857 48.5552 39.3451C48.134 39.6477 47.5864 39.5721 47.2999 39.1853C46.9967 38.7734 47.0978 38.2437 47.5274 37.9326C50.1221 36.0242 53.7193 36.0158 56.2888 37.9242C56.651 38.1933 56.7774 38.5632 56.651 38.9499C56.5331 39.303 56.2045 39.5385 55.7327 39.53Z" fill="#F7F9FA"/>
</g>
<g clip-path="url(#clip1_9_463)">
<path d="M130.338 41.7911C130.338 41.7344 130.338 41.6321 130.338 41.3823C130.338 36.3852 130.338 31.3768 130.338 26.3798C130.338 25.9482 130.338 25.9482 130.338 25.9482C122.164 25.9482 113.568 25.9482 105.393 25.9482C105.279 25.9482 105.165 25.9482 105.029 25.9482V32.8532H123.257V34.9429H105.029V50.6609C105.154 50.6609 105.257 50.6609 105.359 50.6609C113.682 50.6609 122.016 50.6609 130.338 50.6609C130.338 48.5258 130.338 46.3907 130.338 44.2556C130.338 44.0398 130.338 43.9376 130.338 43.8808H112.179V41.7911H130.338Z" fill="#00D873"/>
<path d="M192.81 41.7911C192.81 41.7344 192.81 41.6321 192.81 41.3823C192.81 36.3852 192.81 31.3768 192.81 26.3798C192.81 25.9482 192.81 25.9482 192.81 25.9482C184.635 25.9482 176.039 25.9482 167.865 25.9482C167.751 25.9482 167.637 25.9482 167.5 25.9482V32.8532H185.728V34.9429H167.5V50.6609C167.626 50.6609 167.728 50.6609 167.83 50.6609C176.153 50.6609 184.487 50.6609 192.81 50.6609C192.81 48.5258 192.81 46.3907 192.81 44.2556C192.81 44.0398 192.81 43.9376 192.81 43.8808H174.65V41.7911H192.81Z" fill="#00D873"/>
<path d="M152.529 25.9482H145.31V32.9214H152.529V25.9482Z" fill="#00D873"/>
<path d="M152.529 34.8975H145.31V50.6495H152.529V34.8975Z" fill="#00D873"/>
<path d="M215 25.9482H207.782V32.9214H215V25.9482Z" fill="#00D873"/>
<path d="M215 34.8975H207.782V50.6495H215V34.8975Z" fill="#00D873"/>
</g>
<defs>
<clipPath id="clip0_9_463">
<rect width="88.5536" height="58.0747" fill="white"/>
</clipPath>
<clipPath id="clip1_9_463">
<rect width="109.971" height="24.7126" fill="white" transform="translate(105.029 25.9482)"/>
</clipPath>
</defs>
</svg>
