<svg width="136" height="50" viewBox="0 0 136 50" fill="none" xmlns="http://www.w3.org/2000/svg">
<path fill-rule="evenodd" clip-rule="evenodd" d="M20.5812 22.1296C20.9218 21.8365 21.4219 21.8365 22.4222 21.8365H22.6744C20.8488 19.7396 20.7978 16.5629 23.9479 14.5656C25.0704 13.8539 26.4027 13.8883 27.5968 14.3243C28.399 13.7206 29.8316 13.1147 31.2641 12.7398C31.2782 12.7361 31.2923 12.733 31.3064 12.7307C30.8165 10.0086 32.9678 7.45546 35.3637 7.19509C36.6045 7.06026 37.7436 7.53429 39.0056 8.05945C40.7689 8.79322 42.772 9.62682 45.6274 9.03884C46.037 8.95451 46.3991 9.34789 46.2232 9.72367C43.1291 16.3339 35.7751 18.6469 32.6856 15.3465C32.2432 14.8739 31.9127 14.3844 31.68 13.8906C30.8367 14.0022 29.5357 14.5176 28.8363 14.9481C30.9211 16.3112 31.7787 18.8199 29.1768 19.5955C26.5749 20.3711 24.5994 17.703 26.5749 15.2934C25.775 15.1603 24.8502 15.2748 23.8953 16.1592C22.4359 17.511 22.2543 19.9098 24.3404 21.7223L24.4737 21.8365L25.6601 21.8365C26.6603 21.8365 27.1604 21.8365 27.501 22.1296C27.8416 22.4226 27.9114 22.9129 28.0509 23.8936L28.1607 24.709C33.7659 25.2098 40.001 26.8541 40.8796 31.0319C40.9313 31.2773 40.9737 31.5253 41.0079 31.7749C41.055 31.7852 41.0968 31.7942 41.1343 31.8024C41.3513 31.8493 41.4238 31.865 41.5346 31.9056C42.3794 32.2152 42.9135 33.043 42.8419 33.9321C42.8309 34.0688 42.7957 34.2269 42.7253 34.5431C42.6549 34.8593 42.6197 35.0174 42.5716 35.146C42.259 35.9825 41.769 36.5332 40.871 36.4623C40.5216 38.6187 39.9063 40.4035 39.6791 41.0624L39.6629 41.1094C38.9085 43.3006 35.0353 43.1512 33.2245 41.458C32.6129 40.8861 32.3059 40.446 32.1676 40.1138C31.3677 43.2033 28.4049 42.952 24.0626 42.952C19.7204 42.952 16.7156 43.2076 15.9146 40.1138C15.7763 40.446 15.4693 40.8861 14.8577 41.458C13.0469 43.1513 9.17377 43.3007 8.41928 41.1094L8.4031 41.0625C8.17596 40.4035 7.56067 38.6187 7.21125 36.4623C6.31323 36.5332 5.82326 35.9825 5.5106 35.146C5.46254 35.0175 5.42733 34.8594 5.35692 34.5431C5.28651 34.2269 5.2513 34.0688 5.24029 33.9321C5.16871 33.043 5.70278 32.2152 6.54765 31.9056C6.6584 31.865 6.73097 31.8493 6.94796 31.8024L6.94912 31.8021C6.9863 31.7941 7.02772 31.7851 7.07429 31.7749C7.10848 31.5253 7.15097 31.2773 7.20258 31.0319C8.08124 26.8541 14.3163 25.2098 19.9216 24.709L20.0313 23.8936C20.1708 22.9129 20.2406 22.4226 20.5812 22.1296ZM27.9193 15.711C29.6295 16.5078 29.7804 18.1289 28.6235 18.4999C27.4666 18.8708 26.2091 17.5038 27.9193 15.711ZM19.3001 31.0684C18.0044 30.1864 15.2555 29.2684 13.2076 32.2012C13.1528 32.2797 13.1049 32.3662 13.0902 32.4605C13.0637 32.6303 13.0739 32.9199 13.3768 33.1186C13.6258 33.282 13.8597 33.2505 14.0196 33.1891C14.1712 33.131 14.2706 32.9953 14.3577 32.8594C15.5721 30.9648 17.5259 31.3555 18.7899 32.3072C18.8029 32.3169 18.8157 32.3264 18.8297 32.3345C18.9186 32.3853 19.281 32.5491 19.614 32.0728C19.9668 31.5683 19.4139 31.1483 19.3242 31.085C19.3222 31.0836 19.3202 31.0822 19.3183 31.0808C19.3122 31.0766 19.3063 31.0727 19.3001 31.0684ZM34.8949 32.2012C32.847 29.2684 30.0981 30.1864 28.8025 31.0684C28.8004 31.0698 28.7984 31.0712 28.7964 31.0725C28.7904 31.0766 28.7845 31.0806 28.7783 31.085C28.6886 31.1483 28.1357 31.5683 28.4885 32.0728C28.8216 32.5491 29.1839 32.3853 29.2728 32.3345C29.2868 32.3264 29.2997 32.3169 29.3126 32.3072C30.5767 31.3555 32.5305 30.9648 33.7448 32.8594C33.8319 32.9953 33.9313 33.131 34.0829 33.1891C34.2429 33.2505 34.4767 33.282 34.7257 33.1186C35.0286 32.9199 35.0388 32.6303 35.0123 32.4605C34.9977 32.3662 34.9497 32.2797 34.8949 32.2012Z" fill="#282856"/>
<path d="M68.4011 29.0835C68.4011 29.5235 68.0408 29.8803 67.5963 29.8803H54.5182C53.9626 29.8803 53.5122 30.3262 53.5122 30.8763V41.7329C53.5122 42.283 53.9626 42.7289 54.5182 42.7289H73.2765C73.8321 42.7289 74.2825 42.283 74.2825 41.7329V38.1472C74.2825 37.5971 73.8321 37.1512 73.2765 37.1512H59.5339C59.4862 37.1512 59.4476 37.113 59.4476 37.0658V36.981C59.4476 36.9807 59.4474 36.9805 59.4471 36.9805C59.4468 36.9805 59.4466 36.9802 59.4466 36.9799V36.2619C59.4466 35.8651 59.7715 35.5434 60.1723 35.5434H73.2765C73.8321 35.5434 74.2825 35.0974 74.2825 34.5473V23.6054C74.2825 23.0553 73.8321 22.6094 73.2765 22.6094H54.5182C53.9626 22.6094 53.5122 23.0553 53.5122 23.6054V27.2906C53.5122 27.8407 53.9626 28.2867 54.5182 28.2867H67.5963C68.0408 28.2867 68.4011 28.6434 68.4011 29.0835Z" fill="#282856"/>
<path d="M117.888 23.6054C117.888 23.0553 118.339 22.6094 118.894 22.6094H122.817C123.372 22.6094 123.823 23.0553 123.823 23.6054V27.2906C123.823 27.8407 123.372 28.2867 122.817 28.2867H118.894C118.339 28.2867 117.888 27.8407 117.888 27.2906V23.6054Z" fill="#282856"/>
<path d="M117.888 30.8763C117.888 30.3262 118.339 29.8803 118.894 29.8803H122.817C123.372 29.8803 123.823 30.3262 123.823 30.8763V41.7329C123.823 42.283 123.372 42.7289 122.817 42.7289H118.894C118.339 42.7289 117.888 42.283 117.888 41.7329V30.8763Z" fill="#282856"/>
<path d="M106.388 29.0835C106.388 29.5235 106.028 29.8803 105.584 29.8803H92.4904C91.9348 29.8803 91.4844 30.3262 91.4844 30.8763V41.7329C91.4844 42.283 91.9348 42.7289 92.4904 42.7289H111.249C111.804 42.7289 112.255 42.283 112.255 41.7329V38.1472C112.255 37.5971 111.804 37.1512 111.249 37.1512H98.1392C97.6947 37.1512 97.3344 36.7945 97.3344 36.3544V35.5993C97.3344 35.5763 97.3533 35.5576 97.3766 35.5576H97.4116C97.4155 35.5576 97.4188 35.5544 97.4188 35.5505C97.4188 35.5465 97.422 35.5434 97.4259 35.5434H111.249C111.804 35.5434 112.255 35.0974 112.255 34.5473V23.6054C112.255 23.0553 111.804 22.6094 111.249 22.6094H92.4904C91.9348 22.6094 91.4844 23.0553 91.4844 23.6054V27.2906C91.4844 27.8407 91.9348 28.2867 92.4904 28.2867H105.584C106.028 28.2867 106.388 28.6434 106.388 29.0835Z" fill="#282856"/>
<path d="M79.916 23.6054C79.916 23.0553 80.3664 22.6094 80.922 22.6094H84.8444C85.4 22.6094 85.8504 23.0553 85.8504 23.6054V27.2906C85.8504 27.8407 85.4 28.2867 84.8444 28.2867H80.922C80.3664 28.2867 79.916 27.8407 79.916 27.2906V23.6054Z" fill="#282856"/>
<path d="M79.916 30.8763C79.916 30.3262 80.3664 29.8803 80.922 29.8803H84.8444C85.4 29.8803 85.8504 30.3262 85.8504 30.8763V41.7329C85.8504 42.283 85.4 42.7289 84.8444 42.7289H80.922C80.3664 42.7289 79.916 42.283 79.916 41.7329V30.8763Z" fill="#282856"/>
<path d="M46.4164 9.6325C43.2495 16.4302 35.6934 18.8118 32.5211 15.423C29.2069 11.8825 32.0178 7.41605 35.2678 7.06287C38.3234 6.73082 40.7781 9.99934 45.8195 8.9486C46.2288 8.86328 46.5916 9.25641 46.4164 9.6325Z" fill="#282856"/>
</svg>
