<svg width="20" height="20" viewBox="0 0 20 20" fill="none" xmlns="http://www.w3.org/2000/svg">
<path d="M18.9471 6.30447C18.937 5.54709 18.7952 4.79724 18.5281 4.08847C18.2964 3.49062 17.9426 2.94767 17.4892 2.4943C17.0359 2.04093 16.4929 1.68712 15.8951 1.45547C15.1954 1.19283 14.4562 1.05081 13.7091 1.03547C12.7471 0.992469 12.4421 0.980469 10.0001 0.980469C7.55807 0.980469 7.24507 0.980469 6.29007 1.03547C5.54323 1.05092 4.80442 1.19294 4.10507 1.45547C3.50713 1.68696 2.96409 2.04071 2.5107 2.4941C2.05732 2.94749 1.70356 3.49053 1.47207 4.08847C1.2089 4.7876 1.06719 5.52658 1.05307 6.27347C1.01007 7.23647 0.99707 7.54147 0.99707 9.98347C0.99707 12.4255 0.99707 12.7375 1.05307 13.6935C1.06807 14.4415 1.20907 15.1795 1.47207 15.8805C1.70395 16.4782 2.05797 17.021 2.51151 17.4742C2.96505 17.9274 3.50813 18.281 4.10607 18.5125C4.8035 18.7857 5.54244 18.9378 6.29107 18.9625C7.25407 19.0055 7.55907 19.0185 10.0011 19.0185C12.4431 19.0185 12.7561 19.0185 13.7111 18.9625C14.4582 18.9478 15.1974 18.8061 15.8971 18.5435C16.4948 18.3116 17.0376 17.9576 17.4909 17.5043C17.9442 17.051 18.2982 16.5082 18.5301 15.9105C18.7931 15.2105 18.9341 14.4725 18.9491 13.7235C18.9921 12.7615 19.0051 12.4565 19.0051 10.0135C19.0031 7.57147 19.0031 7.26147 18.9471 6.30447ZM9.99407 14.6015C7.44007 14.6015 5.37107 12.5325 5.37107 9.97847C5.37107 7.42447 7.44007 5.35547 9.99407 5.35547C11.2202 5.35547 12.396 5.84253 13.263 6.70951C14.13 7.5765 14.6171 8.75237 14.6171 9.97847C14.6171 11.2046 14.13 12.3804 13.263 13.2474C12.396 14.1144 11.2202 14.6015 9.99407 14.6015ZM14.8011 6.26247C14.6595 6.2626 14.5192 6.23481 14.3884 6.18068C14.2575 6.12655 14.1386 6.04715 14.0385 5.94702C13.9384 5.8469 13.859 5.72801 13.8049 5.59716C13.7507 5.46631 13.7229 5.32607 13.7231 5.18447C13.7231 5.04297 13.7509 4.90286 13.8051 4.77213C13.8592 4.6414 13.9386 4.52262 14.0387 4.42256C14.1387 4.32251 14.2575 4.24314 14.3882 4.18899C14.519 4.13484 14.6591 4.10697 14.8006 4.10697C14.9421 4.10697 15.0822 4.13484 15.2129 4.18899C15.3436 4.24314 15.4624 4.32251 15.5625 4.42256C15.6625 4.52262 15.7419 4.6414 15.7961 4.77213C15.8502 4.90286 15.8781 5.04297 15.8781 5.18447C15.8781 5.78047 15.3961 6.26247 14.8011 6.26247Z" fill="#282856" fill-opacity="0.6"/>
</svg>
